<?xml version="1.0" encoding="UTF-8"?>
<svg version="1.1" xmlns="http://www.w3.org/2000/svg" width="80" height="80">
<path d="M0 0 C26.4 0 52.8 0 80 0 C80 26.4 80 52.8 80 80 C53.6 80 27.2 80 0 80 C0 53.6 0 27.2 0 0 Z " fill="#402707" transform="translate(0,0)"/>
<path d="M0 0 C0.99 0.33 1.98 0.66 3 1 C3 17.83 3 34.66 3 52 C2.34 52 1.68 52 1 52 C-0.01866229 50.34467377 -1.01810813 48.67739862 -2 47 C-2.99 46.505 -2.99 46.505 -4 46 C-4 45.34 -4 44.68 -4 44 C-6.38227244 42.71723792 -8.50042016 41.85988235 -11.125 41.125 C-14 40 -14 40 -15.1796875 37.9296875 C-15.45039062 37.29289062 -15.72109375 36.65609375 -16 36 C-17.134375 36.01160156 -18.26875 36.02320313 -19.4375 36.03515625 C-20.95833167 36.0445441 -22.47916514 36.05364322 -24 36.0625 C-25.11568359 36.07506836 -25.11568359 36.07506836 -26.25390625 36.08789062 C-33.3076475 36.11855907 -40.04950453 35.21633671 -47 34 C-47.33 32.35 -47.66 30.7 -48 29 C-48.99 29.33 -49.98 29.66 -51 30 C-50.505 28.515 -50.505 28.515 -50 27 C-49.34 27 -48.68 27 -48 27 C-47.67 25.35 -47.34 23.7 -47 22 C-45.35 22 -43.7 22 -42 22 C-42 21.34 -42 20.68 -42 20 C-35.510328 16.10906834 -30.14301639 14.41721572 -22.56640625 14.140625 C-19.88013633 14.1066284 -19.88013633 14.1066284 -17 13 C-17.07734375 12.27296875 -17.1546875 11.5459375 -17.234375 10.796875 C-16.93007184 7.16552391 -15.69293908 5.90691914 -13.25 3.25 C-12.55390625 2.47140625 -11.8578125 1.6928125 -11.140625 0.890625 C-7.09292323 -2.68435247 -4.71070932 -2.17417353 0 0 Z " fill="#362406" transform="translate(77,28)"/>
<path d="M0 0 C2.33984375 1.52734375 2.33984375 1.52734375 4 3 C3.01 3.33 2.02 3.66 1 4 C0.67 5.98 0.34 7.96 0 10 C-1.03125 10.20625 -2.0625 10.4125 -3.125 10.625 C-7.71112209 11.92331155 -9.97159035 14.38068116 -13 18 C-13 18.99 -13 19.98 -13 21 C-12.54625 20.505 -12.0925 20.01 -11.625 19.5 C-10 18 -10 18 -8 18 C-8 17.34 -8 16.68 -8 16 C-6.906875 15.731875 -5.81375 15.46375 -4.6875 15.1875 C-1.15904513 14.05121792 -0.38365517 13.49716256 2 11 C3.32 11 4.64 11 6 11 C6 11.66 6 12.32 6 13 C5.0925 13.4125 4.185 13.825 3.25 14.25 C-0.98608341 16.53096799 -3.46334132 18.39002395 -5 23 C-5.66 23 -6.32 23 -7 23 C-7 23.66 -7 24.32 -7 25 C-6.401875 24.484375 -5.80375 23.96875 -5.1875 23.4375 C-4.465625 22.963125 -3.74375 22.48875 -3 22 C-2.01 22.33 -1.02 22.66 0 23 C2.72301676 21.21559147 2.72301676 21.21559147 5.5 18.75 C6.93859375 17.53570313 6.93859375 17.53570313 8.40625 16.296875 C10.91112806 14.14252573 10.91112806 14.14252573 12.71875 12.203125 C14 11 14 11 16 11 C15.71349017 14.43811794 15.26566773 15.74171193 12.75 18.1875 C10 20 10 20 7.5625 20.8125 C3.70741229 22.59900406 1.34577199 25.5001987 -1 29 C-1.70670728 31.69254991 -1.70670728 31.69254991 -2 34 C-5.37384676 36.24923117 -6.90303535 36.30189703 -10.875 36.5 C-15.06872209 36.71021163 -18.1416501 37.37988343 -22 39 C-23.5778125 39.0309375 -23.5778125 39.0309375 -25.1875 39.0625 C-32.32989492 40.81882662 -37.46954464 46.95974752 -42 52.5625 C-42.66 53.366875 -43.32 54.17125 -44 55 C-44.66 55 -45.32 55 -46 55 C-45.938125 56.093125 -45.87625 57.18625 -45.8125 58.3125 C-46 62 -46 62 -47.1875 63.9375 C-49.56041618 65.32851983 -51.29686424 65.21917317 -54 65 C-54.6875 63.1875 -54.6875 63.1875 -55 61 C-54.0246803 59.97591432 -53.01801357 58.98165594 -52 58 C-51.608125 56.9275 -51.21625 55.855 -50.8125 54.75 C-48.86919202 49.87630698 -44.96645375 47.23394559 -41 44 C-39.29413425 42.37347684 -37.6222454 40.70993434 -36 39 C-35.0925 38.175 -34.185 37.35 -33.25 36.5 C-30.61546416 33.38058026 -30.72649385 30.62016701 -30.625 26.625 C-30.33310649 19.48171728 -28.06441226 16.73281384 -23 12 C-21.77845685 10.59470778 -20.5698509 9.17805645 -19.375 7.75 C-18.25437078 6.49608008 -17.12986352 5.24560564 -16 4 C-15.2575 3.175 -14.515 2.35 -13.75 1.5 C-9.42530529 -0.85892439 -4.81499201 -0.7965188 0 0 Z " fill="#A97312" transform="translate(62,7)"/>
<path d="M0 0 C19.8 0 39.6 0 60 0 C60 9.57 60 19.14 60 29 C56.16263678 28.04065919 55.40339772 27.76390737 53 25 C53.639375 24.5875 54.27875 24.175 54.9375 23.75 C57.2618167 21.77785249 57.43317629 20.88781766 58 18 C56.22750476 19.4354503 54.45706424 20.87343803 52.6875 22.3125 C51.20830078 23.51326172 51.20830078 23.51326172 49.69921875 24.73828125 C47.08926152 26.84442144 47.08926152 26.84442144 45.26953125 28.79296875 C44 30 44 30 42 30 C41.67 30.66 41.34 31.32 41 32 C41 31.01 41 30.02 41 29 C40.38125 29.495 39.7625 29.99 39.125 30.5 C37 32 37 32 35 32 C35 31.34 35 30.68 35 30 C35.66 30 36.32 30 37 30 C37.0928125 29.1646875 37.0928125 29.1646875 37.1875 28.3125 C38.37110067 24.9437904 40.29194508 23.277228 43 21 C45.8125 20.1875 45.8125 20.1875 48 20 C48 19.34 48 18.68 48 18 C44.40323514 19.21827419 44.40323514 19.21827419 41.5625 21.625 C40 23 40 23 36.8125 23.1875 C35.4203125 23.0946875 35.4203125 23.0946875 34 23 C34 23.66 34 24.32 34 25 C32.03852126 26.38938077 30.03833424 27.7260411 28 29 C28.14800134 24.11595586 30.7160787 21.59203851 34.078125 18.3828125 C36 17 36 17 39.4375 16.5625 C40.283125 16.706875 41.12875 16.85125 42 17 C42.185625 15.5459375 42.185625 15.5459375 42.375 14.0625 C42.58125 13.051875 42.7875 12.04125 43 11 C43.66 10.67 44.32 10.34 45 10 C40.5357394 7.02382627 36.23386689 7.25022491 31 8 C28.18643765 9.38506414 26.3715831 10.89192613 24 13 C24 12.34 24 11.68 24 11 C22.95199219 10.81824219 22.95199219 10.81824219 21.8828125 10.6328125 C20.97273438 10.46523437 20.06265625 10.29765625 19.125 10.125 C18.22007813 9.96257813 17.31515625 9.80015625 16.3828125 9.6328125 C14 9 14 9 12 7 C10.906875 6.87625 9.81375 6.7525 8.6875 6.625 C4.60929017 5.933778 2.89354586 4.89354586 0 2 C0 1.34 0 0.68 0 0 Z " fill="#422503" transform="translate(20,0)"/>
<path d="M0 0 C2.94203717 0.11393523 5.88346886 0.23277177 8.82470703 0.3659668 C9.82501953 0.40141602 10.82533203 0.43686523 11.85595703 0.47338867 C23.74375695 0.98791231 36.03536467 2.15866983 45.07470703 10.7409668 C46.94970703 13.0534668 46.94970703 13.0534668 46.94970703 15.0534668 C28.46970703 15.0534668 9.98970703 15.0534668 -9.05029297 15.0534668 C-8.72029297 13.7334668 -8.39029297 12.4134668 -8.05029297 11.0534668 C-7.06029297 10.7234668 -6.07029297 10.3934668 -5.05029297 10.0534668 C-5.05029297 9.3934668 -5.05029297 8.7334668 -5.05029297 8.0534668 C-4.39029297 8.0534668 -3.73029297 8.0534668 -3.05029297 8.0534668 C-3.07091797 6.9190918 -3.09154297 5.7847168 -3.11279297 4.6159668 C-3.03319879 0.07909866 -3.03319879 0.07909866 0 0 Z " fill="#C28E06" transform="translate(25.05029296875,64.946533203125)"/>
<path d="M0 0 C-0.33 0.66 -0.66 1.32 -1 2 C-1.66 2 -2.32 2 -3 2 C-3 2.66 -3 3.32 -3 4 C-4.65 4.33 -6.3 4.66 -8 5 C-8.12375 5.61875 -8.2475 6.2375 -8.375 6.875 C-9 9 -9 9 -11 11 C-10.34 11 -9.68 11 -9 11 C-8.67 12.65 -8.34 14.3 -8 16 C-7.24074219 15.98839844 -6.48148438 15.97679688 -5.69921875 15.96484375 C-4.70535156 15.95582031 -3.71148437 15.94679688 -2.6875 15.9375 C-1.70136719 15.92589844 -0.71523438 15.91429688 0.30078125 15.90234375 C3 16 3 16 6 17 C7.40824893 17.08021999 8.81997231 17.10765977 10.23046875 17.09765625 C11.43413086 17.09282227 11.43413086 17.09282227 12.66210938 17.08789062 C13.49548828 17.07951172 14.32886719 17.07113281 15.1875 17.0625 C16.03248047 17.05798828 16.87746094 17.05347656 17.74804688 17.04882812 C19.83206155 17.03705403 21.91603977 17.0191189 24 17 C24.495 19.475 24.495 19.475 25 22 C25.9075 22.103125 26.815 22.20625 27.75 22.3125 C31.03071844 23.00649813 32.60889095 23.70085668 35 26 C35 26.66 35 27.32 35 28 C35.639375 28.2475 36.27875 28.495 36.9375 28.75 C39 30 39 30 39.75 32.125 C39.8325 32.74375 39.915 33.3625 40 34 C38.02 34 36.04 34 34 34 C33.9175 33.38125 33.835 32.7625 33.75 32.125 C33.2167539 29.86551308 33.2167539 29.86551308 31.23828125 29.0234375 C30.49964844 28.68570313 29.76101562 28.34796875 29 28 C28.27683594 27.5978125 27.55367188 27.195625 26.80859375 26.78125 C26.02613281 26.3584375 25.24367187 25.935625 24.4375 25.5 C23.67308594 25.0771875 22.90867188 24.654375 22.12109375 24.21875 C13.72811386 20.94139114 4.72368643 20.64936623 -4.1875 20.375 C-5.23486328 20.33632812 -6.28222656 20.29765625 -7.36132812 20.2578125 C-9.90739113 20.16480563 -12.45346963 20.07896716 -15 20 C-15.33 22.31 -15.66 24.62 -16 27 C-16.66 27 -17.32 27 -18 27 C-18 27.66 -18 28.32 -18 29 C-18.99 29.66 -19.98 30.32 -21 31 C-21.33 31.99 -21.66 32.98 -22 34 C-27.28 34 -32.56 34 -38 34 C-38 32.35 -38 30.7 -38 29 C-37.34 28.525625 -36.68 28.05125 -36 27.5625 C-35.34 27.046875 -34.68 26.53125 -34 26 C-33.66602213 22.87413125 -33.66602213 22.87413125 -34 20 C-33.01 19.67 -32.02 19.34 -31 19 C-30.67 18.01 -30.34 17.02 -30 16 C-27.9375 14.8125 -27.9375 14.8125 -26 14 C-27.11346603 17.49946467 -28.36089688 20.72179377 -30 24 C-30 24.66 -30 25.32 -30 26 C-26.20452079 25.03223902 -26.20452079 25.03223902 -23 23 C-22.9175 21.9275 -22.835 20.855 -22.75 19.75 C-21.81862655 15.09313273 -20.54972922 14.10601307 -17 11 C-15.49546554 9.46275826 -13.995841 7.92070237 -12.5 6.375 C-4.77730009 -1.59243336 -4.77730009 -1.59243336 0 0 Z " fill="#3E2A07" transform="translate(38,46)"/>
<path d="M0 0 C1.32 0 2.64 0 4 0 C4 0.66 4 1.32 4 2 C3.0925 2.4125 2.185 2.825 1.25 3.25 C-2.98608341 5.53096799 -5.46334132 7.39002395 -7 12 C-7.66 12 -8.32 12 -9 12 C-9 12.66 -9 13.32 -9 14 C-8.401875 13.484375 -7.80375 12.96875 -7.1875 12.4375 C-6.465625 11.963125 -5.74375 11.48875 -5 11 C-4.01 11.33 -3.02 11.66 -2 12 C0.72301676 10.21559147 0.72301676 10.21559147 3.5 7.75 C4.93859375 6.53570312 4.93859375 6.53570312 6.40625 5.296875 C8.91112806 3.14252573 8.91112806 3.14252573 10.71875 1.203125 C12 0 12 0 14 0 C13.71349017 3.43811794 13.26566773 4.74171193 10.75 7.1875 C8 9 8 9 5.5625 9.8125 C1.70741229 11.59900406 -0.65422801 14.5001987 -3 18 C-3.70670728 20.69254991 -3.70670728 20.69254991 -4 23 C-7.33263556 25.22175704 -8.83104617 25.32875529 -12.75 25.5625 C-16.25641871 25.79173318 -19.66762086 26.0602118 -23.125 26.6875 C-24.07375 26.790625 -25.0225 26.89375 -26 27 C-26.66 26.34 -27.32 25.68 -28 25 C-22.25 22 -22.25 22 -20 22 C-20 21.34 -20 20.68 -20 20 C-13.25 16 -13.25 16 -11 16 C-10.7834375 14.576875 -10.7834375 14.576875 -10.5625 13.125 C-10 10 -10 10 -9 8 C-9.66 7.67 -10.32 7.34 -11 7 C-8.54769689 4.03142255 -6.68155185 3.73631037 -3 3 C-2.484375 2.484375 -1.96875 1.96875 -1.4375 1.4375 C-0.963125 0.963125 -0.48875 0.48875 0 0 Z " fill="#A88C1A" transform="translate(64,18)"/>
<path d="M0 0 C12.54 0 25.08 0 38 0 C37.34 1.65 36.68 3.3 36 5 C36.495 5.99 36.495 5.99 37 7 C35.1746875 7.37125 35.1746875 7.37125 33.3125 7.75 C29.41640742 8.7049925 26.95700176 10.22781085 24 13 C24 12.34 24 11.68 24 11 C22.95199219 10.81824219 22.95199219 10.81824219 21.8828125 10.6328125 C20.97273438 10.46523437 20.06265625 10.29765625 19.125 10.125 C18.22007813 9.96257813 17.31515625 9.80015625 16.3828125 9.6328125 C14 9 14 9 12 7 C10.906875 6.87625 9.81375 6.7525 8.6875 6.625 C4.60929017 5.933778 2.89354586 4.89354586 0 2 C0 1.34 0 0.68 0 0 Z " fill="#855107" transform="translate(20,0)"/>
<path d="M0 0 C5.82653979 1.72638216 8.44305366 4.14961863 12 9 C11.24074219 9.61488281 10.48148438 10.22976562 9.69921875 10.86328125 C8.70535156 11.67152344 7.71148437 12.47976562 6.6875 13.3125 C5.70136719 14.11300781 4.71523437 14.91351563 3.69921875 15.73828125 C1.08926152 17.84442144 1.08926152 17.84442144 -0.73046875 19.79296875 C-2 21 -2 21 -4 21 C-4.33 21.66 -4.66 22.32 -5 23 C-5 22.01 -5 21.02 -5 20 C-5.61875 20.495 -6.2375 20.99 -6.875 21.5 C-9 23 -9 23 -11 23 C-11 22.34 -11 21.68 -11 21 C-10.34 21 -9.68 21 -9 21 C-8.938125 20.443125 -8.87625 19.88625 -8.8125 19.3125 C-7.62889933 15.9437904 -5.70805492 14.277228 -3 12 C-0.1875 11.1875 -0.1875 11.1875 2 11 C2 10.34 2 9.68 2 9 C-1.59676486 10.21827419 -1.59676486 10.21827419 -4.4375 12.625 C-6 14 -6 14 -9.1875 14.1875 C-10.115625 14.125625 -11.04375 14.06375 -12 14 C-12 14.66 -12 15.32 -12 16 C-13.96147874 17.38938077 -15.96166576 18.7260411 -18 20 C-17.85199866 15.11595586 -15.2839213 12.59203851 -11.921875 9.3828125 C-10 8 -10 8 -6.5625 7.5625 C-5.716875 7.706875 -4.87125 7.85125 -4 8 C-3.8453125 6.576875 -3.8453125 6.576875 -3.6875 5.125 C-3 2 -3 2 0 0 Z " fill="#7D6A0E" transform="translate(66,9)"/>
<path d="M0 0 C0.721875 0.020625 1.44375 0.04125 2.1875 0.0625 C2.6825 1.0525 2.6825 1.0525 3.1875 2.0625 C1.79554085 4.8464183 0.03174221 5.04148997 -2.8125 6.0625 C-1.8225 7.0525 -0.8325 8.0425 0.1875 9.0625 C-0.76125 9.041875 -1.71 9.02125 -2.6875 9 C-9.85870105 9.99114161 -15.48374931 17.27169293 -19.8125 22.625 C-20.4725 23.429375 -21.1325 24.23375 -21.8125 25.0625 C-22.4725 25.0625 -23.1325 25.0625 -23.8125 25.0625 C-23.750625 26.155625 -23.68875 27.24875 -23.625 28.375 C-23.8125 32.0625 -23.8125 32.0625 -25 34 C-27.37291618 35.39101983 -29.10936424 35.28167317 -31.8125 35.0625 C-32.5 33.25 -32.5 33.25 -32.8125 31.0625 C-31.8371803 30.03841432 -30.83051357 29.04415594 -29.8125 28.0625 C-29.420625 26.99 -29.02875 25.9175 -28.625 24.8125 C-26.68299299 19.94206971 -22.78187605 17.28957147 -18.8125 14.0625 C-15.70328797 11.17537455 -13.23375683 8.27231624 -10.8125 4.8125 C-8.15447416 1.19595333 -8.15447416 1.19595333 -5.25 0.0625 C-3.499876 0.0625 -1.74969203 0.03888205 0 0 Z " fill="#B59312" transform="translate(39.8125,36.9375)"/>
<path d="M0 0 C0.33 0.66 0.66 1.32 1 2 C0.00664799 3.67063747 -0.99431758 5.33675599 -2 7 C-2.70670728 9.69254991 -2.70670728 9.69254991 -3 12 C0.79547921 11.03223902 0.79547921 11.03223902 4 9 C4.36760731 6.67182036 4.70241581 4.3381615 5 2 C5.99 1.67 6.98 1.34 8 1 C8.93423645 4.01031744 9.04449911 4.86650268 8 8 C8.66 8 9.32 8 10 8 C10 7.01 10 6.02 10 5 C10.66 5.33 11.32 5.66 12 6 C11.67 8.31 11.34 10.62 11 13 C10.34 13 9.68 13 9 13 C9 13.66 9 14.32 9 15 C8.01 15.66 7.02 16.32 6 17 C5.67 17.99 5.34 18.98 5 20 C-0.28 20 -5.56 20 -11 20 C-11 18.35 -11 16.7 -11 15 C-10.34 14.525625 -9.68 14.05125 -9 13.5625 C-8.34 13.046875 -7.68 12.53125 -7 12 C-6.66602213 8.87413125 -6.66602213 8.87413125 -7 6 C-6.01 5.67 -5.02 5.34 -4 5 C-3.67 4.01 -3.34 3.02 -3 2 C-2.01 1.34 -1.02 0.68 0 0 Z " fill="#844408" transform="translate(11,60)"/>
<path d="M0 0 C2.33203125 1.53515625 2.33203125 1.53515625 4 3 C3.01 3.33 2.02 3.66 1 4 C0.67 5.98 0.34 7.96 0 10 C-1.010625 10.185625 -2.02125 10.37125 -3.0625 10.5625 C-7.33045502 11.73120979 -9.57005353 14.2741267 -12.421875 17.5390625 C-14 19 -14 19 -17 19 C-17.66 18.67 -18.32 18.34 -19 18 C-16.69 15.36 -14.38 12.72 -12 10 C-13.98 10.33 -15.96 10.66 -18 11 C-18.4375 8.875 -18.4375 8.875 -18 6 C-13.53760376 -0.35147732 -7.35703368 -1.45338031 0 0 Z " fill="#C2AD1F" transform="translate(62,7)"/>
<path d="M0 0 C2 2 2 2 2 5 C-9.88 5 -21.76 5 -34 5 C-25.41329428 -3.58670572 -11.3711083 -4.17714182 0 0 Z " fill="#DFCF04" transform="translate(57,75)"/>
<path d="M0 0 C0.99 0.33 1.98 0.66 3 1 C3 4 3 7 3 10 C1.68 10 0.36 10 -1 10 C-1 8.68 -1 7.36 -1 6 C-2.64570159 7.05630262 -2.64570159 7.05630262 -4 9 C-4.04092937 11.33297433 -4.04241723 13.66705225 -4 16 C-4.66 16.66 -5.32 17.32 -6 18 C-6 18.66 -6 19.32 -6 20 C-5.34 20 -4.68 20 -4 20 C-3.67 19.01 -3.34 18.02 -3 17 C-2.01 17.66 -1.02 18.32 0 19 C-0.33 20.98 -0.66 22.96 -1 25 C-1.99 25 -2.98 25 -4 25 C-4.33 26.32 -4.66 27.64 -5 29 C-7.31 29 -9.62 29 -12 29 C-12 24.71 -12 20.42 -12 16 C-10.68 15.34 -9.36 14.68 -8 14 C-8.0825 13.27425781 -8.165 12.54851563 -8.25 11.80078125 C-7.91950238 8.0981751 -6.53867299 6.84517328 -4 4.1875 C-2.88625 3.00220703 -2.88625 3.00220703 -1.75 1.79296875 C-0.88375 0.90544922 -0.88375 0.90544922 0 0 Z " fill="#3C290B" transform="translate(68,27)"/>
<path d="M0 0 C33.24728443 1.30921949 33.24728443 1.30921949 43.125 10.6875 C45 13 45 13 45 15 C42.69 15 40.38 15 38 15 C37.76410156 14.22269531 37.52820313 13.44539063 37.28515625 12.64453125 C35.7025658 9.38795455 34.80373926 8.90657025 31.4375 7.6875 C21.08058643 4.51545636 9.7039316 5.67714359 -1 6 C-0.67 4.02 -0.34 2.04 0 0 Z " fill="#9E5809" transform="translate(27,65)"/>
<path d="M0 0 C9.24 0 18.48 0 28 0 C25 5 25 5 22.546875 6.03125 C16.15173185 7.1030617 12.69097424 7.12445645 7 4 C5.329375 3.4740625 5.329375 3.4740625 3.625 2.9375 C1 2 1 2 0 0 Z " fill="#985D07" transform="translate(23,0)"/>
<path d="M0 0 C0.99 1.32 1.98 2.64 3 4 C4.32 3.01 5.64 2.02 7 1 C7.66 1.33 8.32 1.66 9 2 C7.79279279 9.24324324 7.79279279 9.24324324 4.25 12.625 C1 14 1 14 -2.375 13.25 C-3.24125 12.8375 -4.1075 12.425 -5 12 C-5 7.86021808 -4.67617664 7.01426496 -2.5 3.75 C-2.0359375 3.04359375 -1.571875 2.3371875 -1.09375 1.609375 C-0.7328125 1.07828125 -0.371875 0.5471875 0 0 Z " fill="#976D09" transform="translate(46,24)"/>
<path d="M0 0 C0.125 2.375 0.125 2.375 0 5 C-2.61755025 7.61755025 -4.0405345 7.34743428 -7.6875 7.5625 C-11.21494788 7.79117009 -14.64715779 8.05516505 -18.125 8.6875 C-19.07375 8.790625 -20.0225 8.89375 -21 9 C-21.66 8.34 -22.32 7.68 -23 7 C-17.25 4 -17.25 4 -15 4 C-15 3.34 -15 2.68 -15 2 C-13.06302033 1.66365624 -11.12539514 1.33102835 -9.1875 1 C-7.56908203 0.7215625 -7.56908203 0.7215625 -5.91796875 0.4375 C-3 0 -3 0 0 0 Z " fill="#E6D931" transform="translate(59,36)"/>
<path d="M0 0 C0.33 0.66 0.66 1.32 1 2 C0.04504326 3.69287785 -0.9590934 5.35857037 -2 7 C-3.15811388 9.94729537 -3.15811388 9.94729537 -3 13 C-1.68 13.33 -0.36 13.66 1 14 C-0.5 17 -0.5 17 -3 20 C-5.84663895 20.55411674 -8.06977319 20.29302268 -11 20 C-11.25 17.6875 -11.25 17.6875 -11 15 C-10.34 14.525625 -9.68 14.05125 -9 13.5625 C-8.34 13.046875 -7.68 12.53125 -7 12 C-6.66602213 8.87413125 -6.66602213 8.87413125 -7 6 C-6.01 5.67 -5.02 5.34 -4 5 C-3.67 4.01 -3.34 3.02 -3 2 C-2.01 1.34 -1.02 0.68 0 0 Z " fill="#4C2805" transform="translate(11,60)"/>
<path d="M0 0 C-0.33 0.66 -0.66 1.32 -1 2 C-1.66 2 -2.32 2 -3 2 C-3 2.66 -3 3.32 -3 4 C-4.65 4.33 -6.3 4.66 -8 5 C-8.061875 5.5775 -8.12375 6.155 -8.1875 6.75 C-9 9 -9 9 -11.4375 10.9375 C-14.49557413 13.05373253 -14.49557413 13.05373253 -16 18 C-8.08 18.33 -0.16 18.66 8 19 C8 19.33 8 19.66 8 20 C5.33326258 20.02727345 2.66681131 20.04696948 0 20.0625 C-1.11568359 20.07506836 -1.11568359 20.07506836 -2.25390625 20.08789062 C-7.26148844 20.10966272 -12.04279032 19.71541549 -17 19 C-17 19.99 -17 20.98 -17 22 C-17.99 22.33 -18.98 22.66 -20 23 C-20.48929268 17.75432734 -19.94850747 14.21928339 -16.66015625 9.9921875 C-5.37338756 -1.79112919 -5.37338756 -1.79112919 0 0 Z " fill="#5C3909" transform="translate(38,46)"/>
<path d="M0 0 C8.01752134 -0.49086865 18.47882957 0.27145925 25.453125 4.48046875 C25.96359375 4.98191406 26.4740625 5.48335938 27 6 C27 6.66 27 7.32 27 8 C27.9590625 8.37125 27.9590625 8.37125 28.9375 8.75 C31 10 31 10 31.75 12.125 C31.87375 13.053125 31.87375 13.053125 32 14 C30.02 14 28.04 14 26 14 C25.9175 13.38125 25.835 12.7625 25.75 12.125 C25.2167539 9.86551308 25.2167539 9.86551308 23.23828125 9.0234375 C22.49964844 8.68570313 21.76101562 8.34796875 21 8 C20.27683594 7.5978125 19.55367187 7.195625 18.80859375 6.78125 C12.6423859 3.44926289 6.93810987 1.88375164 0 1 C0 0.67 0 0.34 0 0 Z " fill="#723906" transform="translate(46,66)"/>
<path d="M0 0 C-0.7734375 3.84375 -0.7734375 3.84375 -2.8125 5.25 C-5 6 -5 6 -9 6 C-9 6.66 -9 7.32 -9 8 C-12 9 -15 10 -18 11 C-18.4375 8.875 -18.4375 8.875 -18 6 C-13.32133284 -0.65930292 -7.57984987 -0.74016617 0 0 Z " fill="#FBF634" transform="translate(62,7)"/>
<path d="M0 0 C1.32 0 2.64 0 4 0 C4 1.65 4 3.3 4 5 C11.92 5 19.84 5 28 5 C28 5.33 28 5.66 28 6 C26.69804688 6.03738281 25.39609375 6.07476562 24.0546875 6.11328125 C22.32809743 6.17896674 20.60153619 6.24541318 18.875 6.3125 C17.59109375 6.34633789 17.59109375 6.34633789 16.28125 6.38085938 C11.07430242 6.60115331 7.61619137 7.38601212 3 10 C-0.375 10.1875 -0.375 10.1875 -3 10 C-3 9.34 -3 8.68 -3 8 C-2.34 8 -1.68 8 -1 8 C-1.020625 6.865625 -1.04125 5.73125 -1.0625 4.5625 C-1 1 -1 1 0 0 Z M-5 10 C-4.34 10 -3.68 10 -3 10 C-3.33 11.65 -3.66 13.3 -4 15 C-4.99 15 -5.98 15 -7 15 C-6.125 11.125 -6.125 11.125 -5 10 Z " fill="#BB7406" transform="translate(23,65)"/>
<path d="M0 0 C2 2 2 2 2 5 C1.01 5 0.02 5 -1 5 C-1.495 3.02 -1.495 3.02 -2 1 C-10.45477211 -0.11565355 -18.02187368 -0.45617304 -26 3 C-26.33 3.66 -26.66 4.32 -27 5 C-29.31 5 -31.62 5 -34 5 C-25.53318583 -3.68962507 -11.27833629 -4.14306231 0 0 Z " fill="#CAAD05" transform="translate(57,75)"/>
<path d="M0 0 C1.98 0 3.96 0 6 0 C6 0.66 6 1.32 6 2 C5.34 2 4.68 2 4 2 C4.061875 3.093125 4.12375 4.18625 4.1875 5.3125 C4 9 4 9 2.8125 10.9375 C0.43958382 12.32851983 -1.29686424 12.21917317 -4 12 C-4.6875 10.1875 -4.6875 10.1875 -5 8 C-3.6875 6.5625 -3.6875 6.5625 -2 5 C-0.80972016 2.40084462 -0.80972016 2.40084462 0 0 Z " fill="#D0B21B" transform="translate(12,60)"/>
<path d="M0 0 C2.5 0.0625 2.5 0.0625 5 1 C6.0625 3.375 6.0625 3.375 7 6 C9.01317219 7.80348078 9.01317219 7.80348078 11 9 C10.67 9.66 10.34 10.32 10 11 C9.34 10.67 8.68 10.34 8 10 C8 9.67 8 9.34 8 9 C4.7 9 1.4 9 -2 9 C-2.125 5.625 -2.125 5.625 -2 2 C-1.34 1.34 -0.68 0.68 0 0 Z " fill="#B17613" transform="translate(34,29)"/>
<path d="M0 0 C0.33 0.66 0.66 1.32 1 2 C-0.38657043 4.77314087 -2.1201136 5.25953457 -4.875 6.625 C-5.75929688 7.07101563 -6.64359375 7.51703125 -7.5546875 7.9765625 C-10 9 -10 9 -13 9 C-13 5.33157745 -12.20970874 3.89548041 -10 1 C-6.67981984 -0.13585111 -3.48870151 -0.09967719 0 0 Z " fill="#89620A" transform="translate(42,37)"/>
<path d="M0 0 C0 1.32 0 2.64 0 4 C-1.22589844 3.85691406 -2.45179687 3.71382813 -3.71484375 3.56640625 C-9.65443568 2.90645159 -15.60646663 2.42216818 -21.5625 1.9375 C-22.66658203 1.84662109 -23.77066406 1.75574219 -24.90820312 1.66210938 C-27.60537717 1.44026389 -30.30264122 1.21958591 -33 1 C-33 0.67 -33 0.34 -33 0 C-28.62196815 -0.16750929 -24.24375401 -0.32807935 -19.86523438 -0.48217773 C-18.37525558 -0.53560003 -16.88534391 -0.59092962 -15.39550781 -0.64819336 C-13.25600663 -0.73009836 -11.11635907 -0.80517709 -8.9765625 -0.87890625 C-7.04417725 -0.94960327 -7.04417725 -0.94960327 -5.07275391 -1.02172852 C-2 -1 -2 -1 0 0 Z " fill="#4D3207" transform="translate(63,64)"/>
<path d="M0 0 C0.66 0.33 1.32 0.66 2 1 C2 1.66 2 2.32 2 3 C2.66 3 3.32 3 4 3 C5.25 10.625 5.25 10.625 3 14 C2.34 14 1.68 14 1 14 C0.67 14.99 0.34 15.98 0 17 C-1.87932317 13.13080523 -2.08099402 11.12743173 -1 7 C-0.65596692 4.66822025 -0.32050798 2.33512959 0 0 Z " fill="#553408" transform="translate(18,26)"/>
<path d="M0 0 C-0.5259375 1.175625 -0.5259375 1.175625 -1.0625 2.375 C-1.371875 3.24125 -1.68125 4.1075 -2 5 C-1.67 5.66 -1.34 6.32 -1 7 C-2.216875 7.2475 -3.43375 7.495 -4.6875 7.75 C-8.58359258 8.7049925 -11.04299824 10.22781085 -14 13 C-14 12.34 -14 11.68 -14 11 C-14.99 11 -15.98 11 -17 11 C-17 10.34 -17 9.68 -17 9 C-15.329375 8.87625 -15.329375 8.87625 -13.625 8.75 C-12.42875 8.5025 -11.2325 8.255 -10 8 C-8.72510734 6.20072961 -8.72510734 6.20072961 -8 4 C-4.66666667 0 -4.66666667 0 0 0 Z " fill="#734A0B" transform="translate(58,0)"/>
<path d="M0 0 C0.99 0.33 1.98 0.66 3 1 C3 4 3 7 3 10 C1.68 10 0.36 10 -1 10 C-1 8.68 -1 7.36 -1 6 C-3.52588702 8.36292656 -4.88820837 9.66462511 -6 13 C-6.66 12.67 -7.32 12.34 -8 12 C-7.41463247 8.33939179 -5.916761 6.45464836 -3.4375 3.75 C-2.79683594 3.04359375 -2.15617187 2.3371875 -1.49609375 1.609375 C-0.75552734 0.81273438 -0.75552734 0.81273438 0 0 Z " fill="#68520C" transform="translate(68,27)"/>
<path d="M0 0 C5.61 0 11.22 0 17 0 C16 3 16 3 14 4 C12.19051505 4.12176503 10.37603729 4.17545792 8.5625 4.1875 C7.59441406 4.20167969 6.62632813 4.21585937 5.62890625 4.23046875 C3 4 3 4 0 2 C0 1.34 0 0.68 0 0 Z " fill="#B27505" transform="translate(29,0)"/>
<path d="M0 0 C2.34230583 0.29901777 4.66786984 0.63333968 7 1 C8.13501953 1.16628906 8.13501953 1.16628906 9.29296875 1.3359375 C14.61778788 2.28138277 17.55361168 3.55304732 21 8 C21 8.66 21 9.32 21 10 C18.69 10 16.38 10 14 10 C13.69449219 8.83404297 13.69449219 8.83404297 13.3828125 7.64453125 C12.20588211 4.75380338 12.20588211 4.75380338 9.1796875 3.63671875 C8.08914062 3.32347656 6.99859375 3.01023437 5.875 2.6875 C4.23144531 2.19830078 4.23144531 2.19830078 2.5546875 1.69921875 C1.71164063 1.46847656 0.86859375 1.23773438 0 1 C0 0.67 0 0.34 0 0 Z " fill="#B26408" transform="translate(51,70)"/>
<path d="M0 0 C20.53191489 0.80851064 20.53191489 0.80851064 30 3 C30 3.33 30 3.66 30 4 C25.56251365 4.02896822 21.12505153 4.04678788 16.6875 4.0625 C15.42486328 4.07087891 14.16222656 4.07925781 12.86132812 4.08789062 C11.04858398 4.09272461 11.04858398 4.09272461 9.19921875 4.09765625 C8.08377686 4.10289307 6.96833496 4.10812988 5.8190918 4.11352539 C3 4 3 4 0 3 C0 2.01 0 1.02 0 0 Z " fill="#814C09" transform="translate(27,65)"/>
<path d="M0 0 C0.33 0 0.66 0 1 0 C1 2.31 1 4.62 1 7 C2.32 7 3.64 7 5 7 C5 9.31 5 11.62 5 14 C3.02 14 1.04 14 -1 14 C-1.02685938 11.85423363 -1.04633088 9.70837355 -1.0625 7.5625 C-1.07410156 6.36753906 -1.08570313 5.17257813 -1.09765625 3.94140625 C-1 1 -1 1 0 0 Z " fill="#914E0B" transform="translate(57,42)"/>
<path d="M0 0 C-0.28650983 3.43811794 -0.73433227 4.74171193 -3.25 7.1875 C-5.81616027 8.87883291 -8.16417352 9.86566941 -11 11 C-12.70294787 12.28667172 -14.37946188 13.61096733 -16 15 C-16 14.01 -16 13.02 -16 12 C-13.69921875 9.84375 -13.69921875 9.84375 -10.6875 7.5 C-6.83143128 4.52378066 -6.83143128 4.52378066 -3.26953125 1.21875 C-2 0 -2 0 0 0 Z " fill="#B7A615" transform="translate(78,18)"/>
<path d="M0 0 C0 0.66 0 1.32 0 2 C-0.845625 2.350625 -1.69125 2.70125 -2.5625 3.0625 C-6.25807427 5.14546004 -8.57511664 7.45237089 -11.38671875 10.57421875 C-13 12 -13 12 -16 12 C-16.66 11.67 -17.32 11.34 -18 11 C-16.92643323 9.84501103 -15.84070212 8.70132133 -14.75 7.5625 C-13.84507813 6.60537109 -13.84507813 6.60537109 -12.921875 5.62890625 C-10.86670674 3.88702583 -9.59445957 3.51354251 -7 3 C-6.319375 2.484375 -5.63875 1.96875 -4.9375 1.4375 C-3 0 -3 0 0 0 Z " fill="#CEB829" transform="translate(61,14)"/>
<path d="M0 0 C0.66 0.99 1.32 1.98 2 3 C0.47466834 4.66098368 -1.07101399 6.30329348 -2.625 7.9375 C-3.91277344 9.31228516 -3.91277344 9.31228516 -5.2265625 10.71484375 C-8.28146026 13.2319074 -10.10502639 13.73157807 -14 14 C-10.67853274 10.57788221 -7.23827424 7.45490348 -3.55078125 4.4296875 C-1.75318225 2.88518193 -1.75318225 2.88518193 0 0 Z " fill="#83630D" transform="translate(26,46)"/>
<path d="M0 0 C-1.04874998 2.62187494 -1.64931313 3.79371361 -4.125 5.25 C-4.74375 5.4975 -5.3625 5.745 -6 6 C-6 6.66 -6 7.32 -6 8 C-7.96147874 9.38938077 -9.96166576 10.7260411 -12 12 C-11.85015836 7.05522572 -9.16394878 4.68957045 -5.88671875 1.35546875 C-4 0 -4 0 0 0 Z " fill="#5D3903" transform="translate(60,17)"/>
<path d="M0 0 C0.1875 2.375 0.1875 2.375 0 5 C-0.99 5.66 -1.98 6.32 -3 7 C-3.99 6.67 -4.98 6.34 -6 6 C-6 5.34 -6 4.68 -6 4 C-8.64 4 -11.28 4 -14 4 C-14 3.67 -14 3.34 -14 3 C-12.02 3 -10.04 3 -8 3 C-8 2.34 -8 1.68 -8 1 C-5.23735711 0.40267181 -2.83967231 0 0 0 Z " fill="#F4E84B" transform="translate(59,36)"/>
<path d="M0 0 C0.99 1.32 1.98 2.64 3 4 C4.32 3.01 5.64 2.02 7 1 C7.66 1.33 8.32 1.66 9 2 C8.7452486 3.31571603 8.47065859 4.62760376 8.1875 5.9375 C8.03667969 6.66839844 7.88585938 7.39929688 7.73046875 8.15234375 C7.48941406 8.76207031 7.24835937 9.37179688 7 10 C6.01 10.33 5.02 10.66 4 11 C4.33 9.35 4.66 7.7 5 6 C3.35 6 1.7 6 0 6 C-0.38218767 4.34385343 -0.71395102 2.67542976 -1 1 C-0.67 0.67 -0.34 0.34 0 0 Z " fill="#967916" transform="translate(46,24)"/>
<path d="M0 0 C0 1.98 0 3.96 0 6 C-1.32 6.33 -2.64 6.66 -4 7 C-4.33 8.32 -4.66 9.64 -5 11 C-5.99 10.01 -6.98 9.02 -8 8 C-7.00131858 4.64079885 -6.34860755 3.24657607 -3.4375 1.1875 C-1 0 -1 0 0 0 Z " fill="#4E3308" transform="translate(80,4)"/>
<path d="M0 0 C2.64 0 5.28 0 8 0 C8.33 1.65 8.66 3.3 9 5 C6.36 5 3.72 5 1 5 C0.67 3.35 0.34 1.7 0 0 Z " fill="#D1C005" transform="translate(47,75)"/>
<path d="M0 0 C0.66 0.33 1.32 0.66 2 1 C-5.11389522 9.81548975 -5.11389522 9.81548975 -10 11 C-4.86923077 1.62307692 -4.86923077 1.62307692 0 0 Z " fill="#7B510A" transform="translate(49,16)"/>
<path d="M0 0 C2.6875 -0.375 2.6875 -0.375 6 0 C8.06398076 1.823983 9.39041053 3.72763839 11 6 C9.54119891 5.85892253 8.08296449 5.71197585 6.625 5.5625 C5.40683594 5.44068359 5.40683594 5.44068359 4.1640625 5.31640625 C2 5 2 5 0 4 C0 2.68 0 1.36 0 0 Z " fill="#633707" transform="translate(14,0)"/>
<path d="M0 0 C0.33 0.66 0.66 1.32 1 2 C0.00664799 3.67063747 -0.99431758 5.33675599 -2 7 C-2.70670728 9.69254991 -2.70670728 9.69254991 -3 12 C-3.99 11.67 -4.98 11.34 -6 11 C-6.33 9.35 -6.66 7.7 -7 6 C-6.01 5.67 -5.02 5.34 -4 5 C-3.67 4.01 -3.34 3.02 -3 2 C-2.01 1.34 -1.02 0.68 0 0 Z " fill="#825C09" transform="translate(11,60)"/>
<path d="M0 0 C2.16796875 0.36328125 2.16796875 0.36328125 4 1 C2.38113585 2.67262717 0.7547271 4.33795537 -0.875 6 C-1.77992187 6.928125 -2.68484375 7.85625 -3.6171875 8.8125 C-6 11 -6 11 -8 11 C-8 10.34 -8 9.68 -8 9 C-7.34 9 -6.68 9 -6 9 C-5.9071875 8.1646875 -5.9071875 8.1646875 -5.8125 7.3125 C-4.6282632 3.94197988 -2.74125393 2.2312532 0 0 Z " fill="#5D3A03" transform="translate(63,21)"/>
<path d="M0 0 C0.66 0 1.32 0 2 0 C2.125 3.375 2.125 3.375 2 7 C1.34 7.66 0.68 8.32 0 9 C-1.32 9 -2.64 9 -4 9 C-3.4739075 5.21213403 -2.61896089 2.82847776 0 0 Z " fill="#F3E72B" transform="translate(13,63)"/>
<path d="M0 0 C1.32 0.66 2.64 1.32 4 2 C3.67 3.98 3.34 5.96 3 8 C2.01 8 1.02 8 0 8 C-0.66 9.32 -1.32 10.64 -2 12 C-2.17835515 7.45194365 -1.99785435 4.1205746 0 0 Z " fill="#563906" transform="translate(64,44)"/>
<path d="M0 0 C0.61875 0.33 1.2375 0.66 1.875 1 C3.91018344 2.14193235 3.91018344 2.14193235 6 2 C6 2.99 6 3.98 6 5 C3 6 0 7 -3 8 C-3.36923077 3.44615385 -3.36923077 3.44615385 -1.5 1.1875 C-1.005 0.795625 -0.51 0.40375 0 0 Z " fill="#F6E23A" transform="translate(47,10)"/>
<path d="M0 0 C0.33 1.32 0.66 2.64 1 4 C0.34 4 -0.32 4 -1 4 C-1 4.66 -1 5.32 -1 6 C-1.99 6.66 -2.98 7.32 -4 8 C-4.33 8.99 -4.66 9.98 -5 11 C-6.32 10.67 -7.64 10.34 -9 10 C-6.62176166 5.15544041 -6.62176166 5.15544041 -5 3 C-2.25 2.0625 -2.25 2.0625 0 2 C0 1.34 0 0.68 0 0 Z " fill="#A55307" transform="translate(21,69)"/>
<path d="M0 0 C3.40312738 1.05875074 6.01353231 2.00902154 9 4 C9 4.66 9 5.32 9 6 C9.639375 6.2475 10.27875 6.495 10.9375 6.75 C13 8 13 8 13.75 10.125 C13.87375 11.053125 13.87375 11.053125 14 12 C13.34 12 12.68 12 12 12 C10.8345958 10.53492043 9.66963018 9.06948783 8.5078125 7.6015625 C6.04504991 4.98567477 3.18428027 3.62335857 0 2 C0 1.34 0 0.68 0 0 Z " fill="#582C05" transform="translate(64,68)"/>
<path d="M0 0 C0.721875 0.103125 1.44375 0.20625 2.1875 0.3125 C1.23632866 1.4850131 0.27632991 2.65037015 -0.6875 3.8125 C-1.22117187 4.4621875 -1.75484375 5.111875 -2.3046875 5.78125 C-2.80226563 6.2865625 -3.29984375 6.791875 -3.8125 7.3125 C-4.4725 7.3125 -5.1325 7.3125 -5.8125 7.3125 C-6.1425 7.9725 -6.4725 8.6325 -6.8125 9.3125 C-7.625 7.625 -7.625 7.625 -7.8125 5.3125 C-5.38938332 2.17670194 -4.02309723 0.4470108 0 0 Z " fill="#A08C13" transform="translate(67.8125,22.6875)"/>
<path d="M0 0 C1.32 0 2.64 0 4 0 C4 0.66 4 1.32 4 2 C2.700625 2.5878125 2.700625 2.5878125 1.375 3.1875 C-2.25871505 5.13893957 -4.91700883 7.28403159 -8 10 C-8.33 8.35 -8.66 6.7 -9 5 C-8.071875 4.731875 -7.14375 4.46375 -6.1875 4.1875 C-3.04195492 3.26715813 -3.04195492 3.26715813 -1.375 1.375 C-0.92125 0.92125 -0.4675 0.4675 0 0 Z " fill="#C3AE2C" transform="translate(64,18)"/>
<path d="M0 0 C1.65 0.33 3.3 0.66 5 1 C3.68 3.31 2.36 5.62 1 8 C-0.65 8 -2.3 8 -4 8 C-3.67 7.01 -3.34 6.02 -3 5 C-2.34 4.67 -1.68 4.34 -1 4 C-0.34786708 1.97536745 -0.34786708 1.97536745 0 0 Z " fill="#6E3106" transform="translate(7,72)"/>
<path d="M0 0 C3.63 0 7.26 0 11 0 C10 4 10 4 8.125 5.3125 C6 6 6 6 3 5 C3.66 4.01 4.32 3.02 5 2 C3.35 1.67 1.7 1.34 0 1 C0 0.67 0 0.34 0 0 Z " fill="#E3D02C" transform="translate(51,7)"/>
<path d="M0 0 C-0.33 0.99 -0.66 1.98 -1 3 C-1.99 2.95875 -2.98 2.9175 -4 2.875 C-8.23835866 2.8576652 -11.93193985 3.85808838 -16 5 C-15.67 4.01 -15.34 3.02 -15 2 C-12.63671875 1.015625 -12.63671875 1.015625 -9.6875 0.25 C-8.72199219 -0.01296875 -7.75648437 -0.2759375 -6.76171875 -0.546875 C-4.0629274 -0.98967528 -2.54716045 -0.89543883 0 0 Z " fill="#D6C306" transform="translate(46,75)"/>
<path d="M0 0 C0.66 1.32 1.32 2.64 2 4 C0.02 6.97 0.02 6.97 -2 10 C-2.66 9.01 -3.32 8.02 -4 7 C-3.1025444 3.93369336 -2.26961192 2.26961192 0 0 Z " fill="#CEA123" transform="translate(43,14)"/>
<path d="M0 0 C2.86697492 1.28519565 4.97607712 2.57129254 7 5 C7 5.66 7 6.32 7 7 C5.35 7 3.7 7 2 7 C1.34 4.69 0.68 2.38 0 0 Z " fill="#A24B06" transform="translate(65,73)"/>
<path d="M0 0 C0.33 0.99 0.66 1.98 1 3 C1.66 3 2.32 3 3 3 C3 4.32 3 5.64 3 7 C-0.26954202 6.43628586 -1.82575883 5.50037734 -4 3 C-2.68 2.01 -1.36 1.02 0 0 Z " fill="#513607" transform="translate(77,22)"/>
<path d="M0 0 C0.99 0 1.98 0 3 0 C3.33 1.65 3.66 3.3 4 5 C3.01 5.33 2.02 5.66 1 6 C0.67 6.99 0.34 7.98 0 9 C-0.87890625 2.84765625 -0.87890625 2.84765625 -1 1 C-0.67 0.67 -0.34 0.34 0 0 Z " fill="#A16E05" transform="translate(18,34)"/>
<path d="M0 0 C0.99 0.66 1.98 1.32 3 2 C3.1875 4.625 3.1875 4.625 3 7 C1.68 7 0.36 7 -1 7 C-1.33 5.02 -1.66 3.04 -2 1 C-1.34 0.67 -0.68 0.34 0 0 Z " fill="#865905" transform="translate(68,30)"/>
<path d="M0 0 C1.485 0.99 1.485 0.99 3 2 C3.1875 5.625 3.1875 5.625 3 9 C2.01 9.33 1.02 9.66 0 10 C0 6.7 0 3.4 0 0 Z " fill="#362107" transform="translate(0,12)"/>
<path d="M0 0 C0.66 0 1.32 0 2 0 C2.66 1.65 3.32 3.3 4 5 C3.01 5.66 2.02 6.32 1 7 C0.01 6.34 -0.98 5.68 -2 5 C-1.125 1.125 -1.125 1.125 0 0 Z " fill="#A7981B" transform="translate(59,29)"/>
<path d="M0 0 C0.99 0.66 1.98 1.32 3 2 C2.67 4.31 2.34 6.62 2 9 C0.68 8.01 -0.64 7.02 -2 6 C-1.125 1.125 -1.125 1.125 0 0 Z " fill="#BC851C" transform="translate(38,20)"/>
<path d="M0 0 C0.99 0.33 1.98 0.66 3 1 C1.85546875 2.48828125 1.85546875 2.48828125 0 4 C-2.69921875 4.29296875 -2.69921875 4.29296875 -5.6875 4.1875 C-6.68136719 4.16042969 -7.67523438 4.13335938 -8.69921875 4.10546875 C-9.45847656 4.07066406 -10.21773437 4.03585938 -11 4 C-11.33 3.34 -11.66 2.68 -12 2 C-11.30132813 2.02320313 -10.60265625 2.04640625 -9.8828125 2.0703125 C-8.51769531 2.09738281 -8.51769531 2.09738281 -7.125 2.125 C-6.22007813 2.14820313 -5.31515625 2.17140625 -4.3828125 2.1953125 C-1.81193006 2.24324836 -1.81193006 2.24324836 0 0 Z " fill="#A76B07" transform="translate(43,0)"/>
<path d="M0 0 C0.99 0.33 1.98 0.66 3 1 C2.67 1.66 2.34 2.32 2 3 C1.34 3 0.68 3 0 3 C0 3.66 0 4.32 0 5 C-1.98 5 -3.96 5 -6 5 C-2.25 1.125 -2.25 1.125 0 0 Z " fill="#79560E" transform="translate(35,45)"/>
<path d="M0 0 C1.32 0 2.64 0 4 0 C2.84826645 2.46800047 1.95216435 4.04783565 0 6 C-0.99 6 -1.98 6 -3 6 C-2 4 -1 2 0 0 Z " fill="#7B630F" transform="translate(60,17)"/>
<path d="M0 0 C3.99547736 0.61468882 6.77506642 2.65459376 10 5 C10 5.33 10 5.66 10 6 C6.47730515 6.4025937 5.20059192 6.13372795 2.1875 4.125 C1.465625 3.42375 0.74375 2.7225 0 2 C0 1.34 0 0.68 0 0 Z " fill="#7F4907" transform="translate(20,0)"/>
<path d="M0 0 C2.31 0.66 4.62 1.32 7 2 C7.33 3.65 7.66 5.3 8 7 C6.66382648 6.02471263 5.3311249 5.04466681 4 4.0625 C3.2575 3.51722656 2.515 2.97195312 1.75 2.41015625 C1.1725 1.94480469 0.595 1.47945313 0 1 C0 0.67 0 0.34 0 0 Z " fill="#BF7E06" transform="translate(57,73)"/>
<path d="M0 0 C-0.33 1.65 -0.66 3.3 -1 5 C-2.32 5.33 -3.64 5.66 -5 6 C-5 3 -5 3 -3.625 1.3125 C-2 0 -2 0 0 0 Z " fill="#D9CF1B" transform="translate(78,18)"/>
<path d="M0 0 C1.32 0 2.64 0 4 0 C2.63016497 3.16115776 2.0109362 3.9927092 -1 6 C-1.625 4.125 -1.625 4.125 -2 2 C-1.34 1.34 -0.68 0.68 0 0 Z " fill="#6B4D08" transform="translate(56,17)"/>
<path d="M0 0 C-4.625 4 -4.625 4 -8 4 C-8 3.01 -8 2.02 -8 1 C-5.07175348 0.02391783 -3.04386724 -0.08226668 0 0 Z " fill="#94770E" transform="translate(37,42)"/>
<path d="M0 0 C0.99 0.33 1.98 0.66 3 1 C1.35 2.32 -0.3 3.64 -2 5 C-2.99 4.34 -3.98 3.68 -5 3 C-5.66 2.67 -6.32 2.34 -7 2 C-6.67 1.67 -6.34 1.34 -6 1 C-4.33333333 1 -2.66666667 1 -1 1 C-0.67 0.67 -0.34 0.34 0 0 Z " fill="#AC8E13" transform="translate(54,14)"/>
<path d="M0 0 C4 1 4 1 4 1 Z M-2 1 C-1.34 1 -0.68 1 0 1 C-0.33 2.65 -0.66 4.3 -1 6 C-1.99 6 -2.98 6 -4 6 C-3.125 2.125 -3.125 2.125 -2 1 Z " fill="#B76A06" transform="translate(20,74)"/>
<path d="M0 0 C1.65 0 3.3 0 5 0 C5 0.66 5 1.32 5 2 C5.99 2.33 6.98 2.66 8 3 C5.03 3 2.06 3 -1 3 C-0.67 2.01 -0.34 1.02 0 0 Z " fill="#C8C011" transform="translate(48,40)"/>
<path d="M0 0 C0.33 0.66 0.66 1.32 1 2 C3.02463255 2.65213292 3.02463255 2.65213292 5 3 C4.67 3.66 4.34 4.32 4 5 C2.02 5 0.04 5 -2 5 C-2 4.01 -2 3.02 -2 2 C-1.34 2 -0.68 2 0 2 C0 1.34 0 0.68 0 0 Z " fill="#877210" transform="translate(68,18)"/>
<path d="M0 0 C0.66 0.33 1.32 0.66 2 1 C0.25 3.0625 0.25 3.0625 -2 5 C-4.25 4.75 -4.25 4.75 -6 4 C-3.94766315 1.7522025 -2.99332739 0.9977758 0 0 Z " fill="#88640C" transform="translate(49,16)"/>
<path d="M0 0 C1.32 0.33 2.64 0.66 4 1 C2.02 3.97 2.02 3.97 0 7 C-0.99 6.01 -1.98 5.02 -3 4 C-2.01 2.68 -1.02 1.36 0 0 Z " fill="#5D3304" transform="translate(58,0)"/>
<path d="M0 0 C0.66 1.32 1.32 2.64 2 4 C1.02149805 5.02104551 0.02019573 6.0206121 -1 7 C-1.33 7 -1.66 7 -2 7 C-2 5.02 -2 3.04 -2 1 C-1.34 0.67 -0.68 0.34 0 0 Z " fill="#885F09" transform="translate(18,61)"/>
<path d="M0 0 C2.3422013 1.51109761 3.77132446 2.46097908 4.875 5.0625 C4.936875 6.0215625 4.936875 6.0215625 5 7 C4.34 7.66 3.68 8.32 3 9 C3 7.35 3 5.7 3 4 C1.02 4.33 -0.96 4.66 -3 5 C-2.34 4.67 -1.68 4.34 -1 4 C-0.34786708 1.97536745 -0.34786708 1.97536745 0 0 Z " fill="#CBBE43" transform="translate(56,32)"/>
<path d="M0 0 C0.66 0 1.32 0 2 0 C1.649375 0.78375 1.29875 1.5675 0.9375 2.375 C0.628125 3.24125 0.31875 4.1075 0 5 C0.33 5.66 0.66 6.32 1 7 C-1.31 7 -3.62 7 -6 7 C-5.195625 6.21625 -4.39125 5.4325 -3.5625 4.625 C-1.01309583 2.28017144 -1.01309583 2.28017144 0 0 Z " fill="#693E09" transform="translate(56,0)"/>
<path d="M0 0 C0 1.32 0 2.64 0 4 C-1.65 4 -3.3 4 -5 4 C-5.33 3.34 -5.66 2.68 -6 2 C-3 0 -3 0 0 0 Z " fill="#FBF38A" transform="translate(59,36)"/>
<path d="M0 0 C0 0.66 0 1.32 0 2 C-2.35438733 3.42944945 -3.48032433 4.08661261 -6.25 3.625 C-6.8275 3.41875 -7.405 3.2125 -8 3 C-4.93882432 0.37613513 -4.26826873 0 0 0 Z " fill="#B49B1E" transform="translate(55,34)"/>
<path d="M0 0 C0.66 0 1.32 0 2 0 C1.25 2.4375 1.25 2.4375 0 5 C-2.125 5.8125 -2.125 5.8125 -4 6 C-2.84826645 3.53199953 -1.95216435 1.95216435 0 0 Z " fill="#794307" transform="translate(54,0)"/>
<path d="M0 0 C2.31 0 4.62 0 7 0 C7.33 0.66 7.66 1.32 8 2 C5.36 2.33 2.72 2.66 0 3 C0 2.01 0 1.02 0 0 Z " fill="#CB851A" transform="translate(33,34)"/>
<path d="M0 0 C0.78375 0.04125 1.5675 0.0825 2.375 0.125 C0.89 2.105 0.89 2.105 -0.625 4.125 C-1.945 3.465 -3.265 2.805 -4.625 2.125 C-2.625 0.125 -2.625 0.125 0 0 Z " fill="#967F11" transform="translate(67.625,22.875)"/>
</svg>
